<svg width="39" height="45" viewBox="0 0 39 45" fill="none" xmlns="http://www.w3.org/2000/svg">
<path d="M19.5 45L0 33.7509V11.249L19.5 0L39 11.249V33.7509L19.5 45ZM2.20496 32.4755L19.4961 42.4521L36.7877 32.4755V12.521L19.4961 2.54383L2.20496 12.521V32.4755Z" fill="#ECFF76"/>
<path d="M16.0373 8.87637L15.5946 9.01682C15.2563 9.11859 14.9628 9.33158 14.7625 9.62076C14.5621 9.90999 14.467 10.2582 14.4929 10.6081C14.5187 10.958 14.6635 11.2889 14.9043 11.5461C15.1447 11.8035 15.4659 11.9719 15.816 12.0238L16.0592 12.0677C17.8386 12.3766 19.4659 13.2592 20.688 14.5786C20.8874 14.8069 20.883 14.8815 20.688 15.0966C20.5935 15.1849 20.493 15.2671 20.3872 15.3424L20.144 15.5356C20.0236 15.6338 19.9251 15.7562 19.8554 15.8948C19.7862 16.0333 19.7472 16.1849 19.7408 16.3395C19.7345 16.4941 19.7613 16.6483 19.8193 16.792C19.8773 16.9356 19.9651 17.0654 20.0777 17.173L23.3698 20.316C23.5809 20.5176 23.8636 20.628 24.1566 20.6231C24.4491 20.6182 24.7279 20.4982 24.9322 20.2896L25.0955 20.1141C25.2106 19.9912 25.3349 19.8595 25.4675 19.7366C25.6001 19.6137 25.6093 19.6356 25.7288 19.6795L25.7819 19.7058C25.7863 19.7393 25.7863 19.7733 25.7819 19.8068C25.7902 19.953 25.7902 20.0995 25.7819 20.2457C25.7819 20.3555 25.7819 20.4652 25.7819 20.575C25.7249 20.9775 25.7517 21.3872 25.8609 21.779C25.9696 22.171 26.1578 22.5364 26.4147 22.853C26.7111 23.1867 27.0207 23.4854 27.3395 23.7971C27.5262 23.9891 27.7495 24.142 27.9971 24.2463C28.2448 24.3506 28.5109 24.4046 28.7796 24.4046C29.0487 24.4046 29.3148 24.3506 29.5625 24.2463C29.8101 24.142 30.0334 23.9891 30.2201 23.7971C30.4107 23.6125 30.6009 23.4196 30.791 23.2306L31.6231 22.3878L33.8798 20.1053C34.2556 19.7626 34.4853 19.2902 34.5218 18.785C34.5579 18.2798 34.398 17.7801 34.0748 17.388C33.6901 16.9667 33.2821 16.5666 32.8531 16.1897C32.5518 15.908 32.1638 15.7349 31.7514 15.698C31.2185 15.6529 30.6837 15.6412 30.1494 15.6629C30.0563 15.6629 29.8443 15.6629 29.7955 15.5839C29.7721 15.529 29.7653 15.4686 29.7765 15.41C29.7872 15.3514 29.8155 15.2974 29.8574 15.2546C30.0022 15.1038 30.1143 14.9255 30.1879 14.7303C30.2611 14.5352 30.2937 14.3273 30.284 14.1193C30.2742 13.9113 30.2216 13.7074 30.1299 13.52C30.0388 13.3327 29.9096 13.1656 29.7511 13.029L29.2334 12.5023C28.5738 11.835 27.906 11.1853 27.2464 10.505C25.8468 9.14563 24.0157 8.3095 22.0642 8.1389C20.6325 7.98636 19.1851 8.07094 17.7806 8.38911C17.179 8.52079 16.5994 8.69636 16.0373 8.8676V8.87637ZM21.8166 10.3162C23.2742 10.4349 24.6446 11.0561 25.6888 12.0721C26.3479 12.7261 27.0163 13.389 27.6534 14.0519L27.8791 14.2801C27.6749 14.6398 27.5652 15.0448 27.5608 15.4576C27.5559 15.8704 27.6564 16.2777 27.8528 16.6418C28.0897 17.0619 28.4471 17.4026 28.8795 17.6207C29.3124 17.8388 29.8004 17.9243 30.282 17.8665C30.6657 17.8521 31.0498 17.8594 31.4325 17.8885C31.6982 18.1387 31.9551 18.3845 32.1896 18.6347C31.4593 19.3766 30.7247 20.1141 29.9769 20.8515L29.1403 21.6988L28.6981 22.1379C28.4456 21.8919 28.2067 21.6549 27.9854 21.4091C27.8879 21.3037 27.8923 21.0359 27.906 20.6672C27.906 20.5794 27.906 20.4916 27.906 20.4082C27.9196 20.1816 27.9196 19.9544 27.906 19.7277C27.9021 19.2723 27.7573 18.8291 27.4916 18.4578C27.2254 18.0865 26.851 17.805 26.4191 17.6514C26.1305 17.5364 25.8224 17.4768 25.5118 17.4758C24.9683 17.4778 24.4428 17.6671 24.025 18.0114L22.3655 16.4267C22.7677 15.968 22.9807 15.3759 22.9627 14.7682C22.9447 14.1606 22.6965 13.582 22.268 13.1475C21.2121 11.9669 19.8793 11.0623 18.387 10.5137C19.4937 10.2818 20.6305 10.2256 21.7547 10.3469L21.8166 10.3162ZM18.9798 18.3011C18.7736 18.0963 18.4933 17.9813 18.2013 17.9813C17.9093 17.9813 17.629 18.0963 17.4223 18.3011L7.62937 28.2221C7.40415 28.4199 7.22182 28.661 7.09361 28.9314C6.9654 29.2013 6.89422 29.4945 6.88447 29.7927C6.87472 30.0908 6.92591 30.388 7.0356 30.6662C7.14577 30.9439 7.31152 31.1967 7.5231 31.4086C7.93016 31.848 8.346 32.2475 8.76183 32.6645L9.09382 32.9978C9.28736 33.2029 9.5199 33.3675 9.77827 33.482C10.0366 33.597 10.3155 33.6588 10.5987 33.6652C10.7679 33.6657 10.9361 33.6418 11.0984 33.595C11.5703 33.4727 12.0022 33.2306 12.3508 32.8925L22.2592 22.9324C22.463 22.7244 22.5776 22.4457 22.5776 22.1554C22.5761 22.0107 22.5459 21.8681 22.4879 21.7355C22.4304 21.6028 22.3465 21.4829 22.2417 21.3827L18.9798 18.3011ZM10.7226 31.3735C10.6826 31.4091 10.6377 31.4388 10.5895 31.4617L10.2711 31.1412C9.86846 30.7373 9.4614 30.3334 9.0675 29.9208V29.8989C9.09333 29.8555 9.12453 29.8161 9.16012 29.78L18.2408 20.6321L19.8651 22.2036C18.0156 24.0646 13.3156 28.7882 10.7401 31.3735" fill="#ECFF76"/>
</svg>
