<?xml version="1.0" encoding="UTF-8"?>
<!DOCTYPE svg PUBLIC "-//W3C//DTD SVG 1.1//EN" "http://www.w3.org/Graphics/SVG/1.1/DTD/svg11.dtd">
<!-- Creator: CorelDRAW X8 -->
<svg xmlns="http://www.w3.org/2000/svg" xml:space="preserve" width="10.2527mm" height="11.8512mm" version="1.1" style="shape-rendering:geometricPrecision; text-rendering:geometricPrecision; image-rendering:optimizeQuality; fill-rule:evenodd; clip-rule:evenodd"
viewBox="0 0 29 33"
 xmlns:xlink="http://www.w3.org/1999/xlink">
 <defs>
  <style type="text/css">
   <![CDATA[
    .fil0 {fill:#26AAD4}
   ]]>
  </style>
 </defs>
 <g id="Слой_x0020_1">
  <metadata id="CorelCorpID_0Corel-Layer"/>
  <g id="_2470822453120">
   <path class="fil0" d="M2 24l0 -15c0,0 0,0 0,0 1,0 1,0 1,-1l3 -1c0,0 0,0 0,0l1 -1c1,0 1,-1 2,-1l1 -1c0,0 0,0 1,0l2 -1c0,0 0,0 0,0 1,-1 1,-1 2,0 1,0 1,0 1,0 1,0 1,1 1,1l1 0c1,1 2,1 2,1 0,1 0,1 0,1 1,0 1,0 1,0l4 2c0,1 1,1 1,1l1 0 0 15 -1 0c-1,1 -1,1 -2,2 -1,0 -2,1 -3,1l-4 2c0,0 0,0 0,0 0,0 0,1 0,1l-3 1c0,0 -3,-2 -4,-2 0,0 0,0 0,-1l-2 0c0,-1 0,-1 0,-1 -1,0 -2,-1 -2,-1l-4 -2c0,0 0,0 0,0zm-2 -15l0 15c0,0 0,1 0,1 0,0 1,0 1,0l0 1c0,0 0,0 0,0 1,0 1,0 1,0 0,0 0,0 1,0l3 2c0,1 0,1 0,1l1 0c1,0 1,0 1,0l4 3c0,0 0,0 0,0l2 1c0,0 1,0 1,0 0,0 0,0 0,0l4 -3c0,0 0,0 0,0l4 -2c0,0 0,0 0,0l1 0c0,0 0,0 0,0l2 -1c0,-1 0,-1 0,-1l2 -1c0,0 0,0 0,0 1,-1 1,-1 1,-1l0 -15c0,-1 -1,-1 -1,-1l-9 -5c-1,-1 -2,-2 -4,-3 0,0 0,0 0,0 0,0 0,0 -1,0 0,0 -1,0 -1,0l-1 1c0,0 0,0 -1,1 -1,0 -2,1 -3,2 -1,0 -3,1 -4,2l-2 1c0,0 -2,1 -2,1 0,0 0,0 0,1z"/>
   <path class="fil0" d="M7 21l0 -9c0,0 1,0 1,0l2 0c0,0 1,0 1,0 0,0 0,0 0,-1l1 0c0,-1 0,-1 1,-1 1,0 3,0 3,0 0,0 0,1 1,1l0 0c0,0 0,0 0,0 0,0 0,0 0,0l0 1c1,0 1,0 2,0l2 0c0,0 1,0 1,0 0,0 0,0 0,0l0 9c0,0 0,0 0,0l-15 0c0,0 0,0 0,0zm-2 -9l0 9c0,0 0,1 0,1 0,0 0,0 0,0 0,0 1,1 1,1 0,0 1,0 1,0 4,0 9,0 13,0 1,0 2,0 2,0 1,0 1,0 1,-1l0 0c0,0 0,-1 0,-1l0 -9c0,-1 0,-1 0,-2 -1,0 -2,0 -3,0l-2 0c0,0 0,0 0,-1 -1,0 -1,-1 -2,-1l-4 0c0,0 -1,1 -1,1l0 1c-1,0 0,0 -1,0 -1,0 -2,0 -3,0 0,0 -1,0 -1,0 0,0 -1,1 -1,2z"/>
   <path class="fil0" d="M12 17c0,-1 0,-1 0,-2 1,0 1,0 1,0 1,-1 1,-1 1,-1 1,0 2,1 2,2 1,0 1,1 0,2 0,0 -1,1 -2,1 0,0 0,0 0,0 0,0 -1,0 -1,-1 0,0 0,0 -1,0 0,0 0,-1 0,-1zm-2 -1c0,1 1,2 1,3 0,0 0,0 0,0l1 1c0,0 0,0 1,0 0,0 0,0 0,0 0,1 1,1 1,1 1,0 1,0 2,0l0 -1c1,0 2,-1 2,-3 0,0 0,-1 0,-2 0,0 0,0 0,0 0,-1 -1,-1 -1,-1 -2,-2 -5,-2 -6,0l0 1c-1,0 -1,1 -1,1z"/>
  </g>
 </g>
</svg>
