<?xml version="1.0" encoding="utf-8"?>
<svg id="master-artboard" viewBox="0 0 1400 980" version="1.1" xmlns="http://www.w3.org/2000/svg" x="0px" y="0px" style="enable-background:new 0 0 1400 980;" width="1400px" height="980px"><rect id="ee-background" x="0" y="0" width="1400" height="980" style="fill: white; fill-opacity: 1; pointer-events: none;"/><defs><style id="ee-google-fonts">@import url(https://fonts.googleapis.com/css?family=Roboto:100,100italic,300,300italic,400,400italic,500,500italic,700,700italic,900,900italic);</style></defs>























































































































<path d="M 260.79998779296875 86.19999694824219" style="fill: rgb(23, 168, 247); fill-opacity: 1; stroke: rgb(0, 0, 0); stroke-opacity: 1; stroke-width: 0; paint-order: fill;"/><g transform="matrix(0.8032787442207336, 0, 0, 0.8032787442207336, -11.027553068113207, 2.3803990047972547)"><g transform="translate(0.000000,1220.000000) scale(0.100000,-0.100000)" fill="#000000" stroke="none">
<path d="M5245 12181 c-63 -22 -4960 -2852 -4996 -2887 -15 -14 -40 -49 -55&#10;-77 l-29 -52 0 -2905 0 -2905 27 -50 c14 -27 41 -64 60 -82 26 -24 4769 -2774&#10;4958 -2874 37 -20 60 -24 130 -24 80 0 89 2 155 39 336 185 4908 2836 4933&#10;2860 19 17 46 54 60 81 l27 50 0 2905 0 2905 -29 52 c-15 28 -40 63 -55 77&#10;-38 36 -4958 2877 -5010 2893 -59 18 -116 16 -176 -6z m2390 -1944 l2290&#10;-1323 3 -2655 2 -2654 -2288 -1323 c-1259 -727 -2295 -1322 -2302 -1322 -7 0&#10;-1043 595 -2302 1322 l-2288 1322 0 2656 0 2655 2288 1322 c1258 727 2292&#10;1322 2297 1322 6 1 1041 -594 2300 -1322z" style="fill: rgb(38, 170, 212);"/>
<path d="M2900 9703 c-27 -10 -65 -37 -96 -67 -91 -92 -85 -4 -82 -1212 l3&#10;-1059 32 -95 c59 -173 110 -245 354 -495 116 -120 141 -154 153 -210 3 -16 -9&#10;-745 -29 -1620 -42 -1897 -41 -1866 -15 -1971 79 -308 324 -528 640 -575 427&#10;-62 838 267 866 696 3 44 -11 816 -31 1715 -20 899 -35 1670 -33 1712 6 98 11&#10;105 220 324 173 182 217 244 269 379 61 157 60 131 57 1260 l-3 1030 -23 42&#10;c-33 63 -74 106 -129 133 -41 21 -62 25 -138 25 -74 0 -98 -4 -132 -23 -55&#10;-29 -106 -82 -135 -140 l-23 -47 -5 -1025 -5 -1025 -24 -45 c-13 -25 -92 -115&#10;-175 -200 -167 -170 -206 -220 -260 -327 -49 -99 -76 -201 -83 -313 -2 -52 12&#10;-831 32 -1730 20 -899 35 -1660 33 -1692 -5 -67 -38 -117 -98 -148 -97 -50&#10;-221 3 -249 107 -6 22 2 562 24 1581 19 851 35 1633 35 1737 1 242 -13 321&#10;-86 466 -45 91 -85 140 -258 322 -83 86 -162 178 -176 205 l-25 47 -5 1025 -5&#10;1025 -22 41 c-36 67 -70 101 -135 133 -51 26 -73 31 -127 30 -36 0 -86 -8&#10;-111 -16z" style="fill: rgb(38, 170, 212);"/>
<path d="M3867 9706 c-90 -33 -163 -110 -187 -196 -6 -21 -10 -349 -10 -855&#10;l0 -820 28 -60 c44 -93 112 -145 212 -163 134 -25 266 47 321 175 18 43 19 81&#10;19 872 0 919 3 879 -67 960 -51 60 -122 93 -208 98 -44 2 -84 -2 -108 -11z" style="fill: rgb(38, 170, 212);"/>
<path d="M7335 9706 c-221 -50 -444 -168 -658 -347 -309 -257 -583 -687 -748&#10;-1174 -209 -617 -154 -1251 162 -1875 64 -126 195 -339 260 -421 l29 -37 0&#10;-1376 c0 -1524 -3 -1457 64 -1601 114 -243 352 -395 621 -395 302 0 549 180&#10;657 480 l23 65 3 3225 c2 3572 8 3270 -62 3362 -50 66 -123 101 -216 105 -41&#10;1 -102 -4 -135 -11z m-175 -3647 l0 -2931 -29 -29 c-40 -40 -96 -41 -134 -1&#10;l-27 28 -2 1449 -3 1450 -22 47 c-12 26 -52 84 -89 130 -184 226 -337 531&#10;-408 817 -40 158 -50 247 -50 431 1 252 32 412 131 660 112 282 258 525 419&#10;699 59 64 192 181 207 181 4 0 7 -1319 7 -2931z" style="fill: rgb(38, 170, 212);"/>
</g></g></svg>