<?xml version="1.0" encoding="UTF-8"?>
<!DOCTYPE svg PUBLIC "-//W3C//DTD SVG 1.1//EN" "http://www.w3.org/Graphics/SVG/1.1/DTD/svg11.dtd">
<!-- Creator: CorelDRAW X8 -->
<svg xmlns="http://www.w3.org/2000/svg" xml:space="preserve" width="10.3206mm" height="11.9296mm" version="1.1" style="shape-rendering:geometricPrecision; text-rendering:geometricPrecision; image-rendering:optimizeQuality; fill-rule:evenodd; clip-rule:evenodd"
viewBox="0 0 28 32"
 xmlns:xlink="http://www.w3.org/1999/xlink">
 <defs>
  <style type="text/css">
   <![CDATA[
    .fil0 {fill:#26AAD4}
   ]]>
  </style>
 </defs>
 <g id="Слой_x0020_1">
  <metadata id="CorelCorpID_0Corel-Layer"/>
  <g id="_2505917359904">
   <path class="fil0" d="M2 23l0 -14c0,0 0,0 0,0 1,0 1,-1 1,-1l3 -1c0,0 0,0 0,0l1 -1c1,0 1,-1 2,-1l1 -1c0,0 0,0 0,0l3 -1c0,0 0,0 0,0 1,-1 1,-1 2,-1 0,1 1,1 1,1 0,0 1,1 1,1l1 0c1,1 1,1 2,1 0,0 0,0 0,0 0,1 0,1 0,1l5 2c0,0 0,0 0,0l1 1 0 14 0 1c-1,0 -2,1 -3,1 -1,1 -2,1 -3,2l-3 2c0,0 0,0 0,0 0,0 0,0 -1,0l-2 1c0,0 -4,-2 -4,-2 0,0 0,0 0,0l-2 -1c0,0 0,0 0,0 -1,-1 -2,-1 -3,-2l-3 -2c0,0 0,0 0,0zm12 -23l0 0c0,0 0,0 1,0 0,0 0,0 0,0 1,1 2,2 4,3l8 5c1,0 1,0 1,0l0 16c0,0 0,0 0,0 0,0 0,1 0,1l-3 1c0,0 0,0 0,0l-2 1c0,0 0,0 0,0l0 1c0,0 -1,0 -1,0l-3 2c0,0 0,0 0,0l-4 2c0,0 0,0 0,0 -1,0 -1,1 -2,0l-1 -1c0,0 0,0 0,0l-4 -2c-1,0 -1,0 -1,0l-1 -1c0,0 0,0 0,0l-3 -2c-1,0 -1,0 -1,-1 0,0 -1,0 -1,0 0,0 0,0 0,0l0 0c-1,0 -1,0 -1,-1 0,0 0,0 0,0l0 -16c0,0 0,0 0,0 0,0 2,-1 2,-1l2 -1c1,-1 2,-2 4,-2 1,-1 2,-2 3,-3 0,0 1,0 1,0l1 -1c0,0 1,0 1,0z"/>
   <path class="fil0" d="M7 8l0 5c0,0 0,0 0,1 0,0 0,0 0,0l1 1c0,0 0,0 0,0 0,0 0,0 0,0l0 0c0,0 0,0 0,1 0,0 0,0 0,1l0 1c0,0 0,0 0,0 0,2 0,3 0,5 0,0 0,0 0,0l0 1c0,0 0,0 0,0 0,1 0,1 1,2 0,0 0,0 0,0 0,0 0,0 0,0 0,0 0,1 1,1 1,0 1,0 2,-1l0 0 0 -1c0,0 0,0 0,0 0,-2 0,-3 0,-4l0 -2c0,0 0,0 0,0 0,-1 0,-1 0,-1l0 -1c0,0 0,0 0,0 0,0 0,-1 0,-1 0,-1 0,-1 1,-1 0,-1 0,-1 1,-2 0,0 0,0 0,-1 0,0 0,-4 0,-5 0,0 -1,0 -1,0 -1,0 -1,0 -1,0 0,0 0,1 0,1l0 5c0,0 0,0 0,0 -1,1 -1,1 -1,2l0 1c0,1 0,1 0,1 0,0 0,0 0,1 0,0 0,0 0,0 0,2 0,3 0,5 0,0 0,0 0,0 0,0 0,1 0,1 0,0 0,1 -1,1 0,0 0,0 0,0 0,0 0,0 0,0l0 -3c0,0 0,-1 0,-1 0,0 0,0 0,0 0,-1 0,-1 0,-1 0,0 0,-1 0,-1 0,-1 0,-2 0,-3 0,-1 0,-1 0,-2 -1,0 -1,0 -1,0l0 0c0,-1 0,-1 0,-2l0 -4c0,0 0,-1 -1,-1 0,-1 -1,0 -1,1z"/>
   <path class="fil0" d="M17 13c0,-1 0,-1 0,-2 0,0 0,0 0,0 0,0 0,0 1,0 0,-1 0,-1 0,-1 0,-1 1,-1 1,-1 0,0 0,0 0,0l0 15c0,1 0,1 0,1 -1,0 -1,-1 -1,-1l0 -6c0,0 0,-1 0,-1 0,-1 0,-1 -1,-2 0,-1 0,-1 0,-2zm-2 0c0,1 1,2 1,3 0,1 1,1 1,1 0,0 0,0 0,1l0 6c0,1 0,1 0,1 0,1 0,1 0,1 0,0 1,0 1,0 0,1 1,1 2,0l0 0c0,0 0,0 0,0 0,0 0,0 0,0 0,0 0,-1 0,-1 1,0 1,0 1,-1l0 -16c0,-1 0,-1 -1,-1 0,0 0,0 0,0 -1,0 -1,0 -1,0 0,0 -1,0 -1,0 -2,2 -3,4 -3,6z"/>
   <path class="fil0" d="M9 8l0 3c0,1 1,1 1,1 0,1 1,1 1,0 0,0 0,0 0,0 0,0 0,0 0,0l0 -4c0,-1 0,-1 -1,-1 0,0 0,0 0,0 -1,0 -1,1 -1,1z"/>
  </g>
 </g>
</svg>
